<?xml version="1.0" encoding="utf-8"?>
<!-- Generator: Adobe Illustrator 22.1.0, SVG Export Plug-In . SVG Version: 6.00 Build 0)  -->
<svg version="1.1" id="Layer_1" xmlns="http://www.w3.org/2000/svg" xmlns:xlink="http://www.w3.org/1999/xlink" x="0px" y="0px"
	 viewBox="0 0 220.1 220.1" style="enable-background:new 0 0 220.1 220.1;" xml:space="preserve">
<style type="text/css">
	.st0{fill:#4E3629;}
</style>
<title>riAsset 1ri</title>
<path id="path9" class="st0" d="M104.7,45.7c0,0-1,114.8-1,123.2s0,19.8-9.5,17.7s-21.1-2.1-38-13.6c-16.9-11.5-16.9-13.6-16.9-13.6
	l15.8-5.2c0,0-15.8-3.1-26.4-10.4c-10.5-7.3-19-13.6-19-13.6s-1.1,15.7,4.2,27.2s15.8,21.9,15.8,21.9v-13.6c0,0,14.8,13.6,20,16.7
	s26.4,11.5,34.8,16.7C93.1,204.4,110,219,110,219s14.8-16.7,25.3-20.9c10.5-4.2,24.3-10.4,30.6-14.6c6.3-4.2,23.2-19.9,23.2-19.9
	v17.8c0,0,11.6-13.6,14.8-23c3.2-9.4,4.2-26.1,4.2-26.1s-8.4,6.3-15.8,9.4s-28.5,11.5-28.5,11.5l16.9,4.2c0,0-27.4,20.9-36.9,25.1
	c-9.5,4.2-29.5,6.3-29.5-4.2s1-132.5,1-132.5H104.7z"/>
<rect id="rect11" x="105.8" y="0.8" class="st0" width="7.4" height="12.3"/>
<path class="st0" d="M119.3,27.7c0,6.4-4.5,11.5-9.9,11.5c-5.4,0-9.9-5.2-9.9-11.5s4.5-11.5,9.9-11.5
	C114.8,16.1,119.3,21.3,119.3,27.7z"/>
<path class="st0" d="M126.7,27.3c-0.1,10.2-8,18.5-17.7,18.5c-9.7,0-17.6-8.2-17.7-18.3C70.6,29.2,53,33.1,53,33.1l-1,10.8
	c0,0,31.7,6.4,53.8,6.4s60.1-5.4,60.1-5.4V33.1C165.9,33.1,147.9,29,126.7,27.3z"/>
<path class="st0" d="M108.9,10.1c-8.9,0-16.2,7.6-16.2,17c0,9.4,7.3,17,16.2,17c8.9,0,16.2-7.6,16.2-17
	C125.1,17.7,117.8,10.1,108.9,10.1z M109.5,41.3c-6.4,0-11.6-6.1-11.6-13.5s5.2-13.5,11.6-13.5c6.4,0,11.6,6.1,11.6,13.5
	C121.2,35.2,115.9,41.3,109.5,41.3z"/>
</svg>
